<svg width="24" height="25" viewBox="0 0 24 25" fill="none" xmlns="http://www.w3.org/2000/svg">
<g id="laravel_logo.svg" clip-path="url(#clip0_129_25423)">
<path id="Vector" fill-rule="evenodd" clip-rule="evenodd" d="M23.3716 6.05304C23.3801 6.08449 23.3844 6.11692 23.3845 6.1495V11.2135C23.3845 11.2785 23.3674 11.3423 23.3348 11.3986C23.3022 11.4548 23.2554 11.5015 23.199 11.5338L18.9487 13.9809V18.8312C18.9487 18.9632 18.8785 19.085 18.7641 19.1515L9.8919 24.2589C9.87159 24.2704 9.84944 24.2778 9.82729 24.2857C9.81898 24.2884 9.81113 24.2935 9.80236 24.2958C9.74034 24.3121 9.67515 24.3121 9.61313 24.2958C9.60298 24.293 9.59375 24.2875 9.58405 24.2838C9.56375 24.2764 9.54252 24.27 9.52313 24.2589L0.652824 19.1515C0.596473 19.1191 0.549652 19.0725 0.517078 19.0162C0.484504 18.96 0.46733 18.8962 0.467285 18.8312L0.467285 3.63919C0.467285 3.60596 0.471901 3.57365 0.480208 3.54227C0.482977 3.53165 0.489439 3.52196 0.493131 3.51135C0.500054 3.49196 0.506516 3.47211 0.51667 3.45411C0.523593 3.44211 0.533747 3.43242 0.542054 3.42135C0.55267 3.40658 0.562362 3.39135 0.574824 3.37842C0.585439 3.36781 0.599285 3.35996 0.611285 3.35073C0.62467 3.33965 0.63667 3.32765 0.651901 3.31888L5.08775 0.765191C5.14391 0.732875 5.20757 0.715866 5.27236 0.715866C5.33716 0.715866 5.40082 0.732875 5.45698 0.765191L9.89236 3.31888H9.89329C9.90806 3.32811 9.92052 3.33965 9.9339 3.35027C9.9459 3.3595 9.95929 3.36781 9.9699 3.37796C9.98282 3.39135 9.99205 3.40658 10.0031 3.42135C10.011 3.43242 10.0216 3.44211 10.0281 3.45411C10.0387 3.47258 10.0447 3.49196 10.0521 3.51135C10.0557 3.52196 10.0622 3.53165 10.065 3.54273C10.0735 3.57418 10.0778 3.60661 10.0779 3.63919V13.128L13.7739 10.9998V6.14904C13.7739 6.11673 13.7785 6.08396 13.7868 6.05304C13.7901 6.04196 13.7961 6.03227 13.7997 6.02165C13.8071 6.00227 13.8136 5.98242 13.8237 5.96442C13.8307 5.95242 13.8408 5.94273 13.8487 5.93165C13.8597 5.91688 13.869 5.90165 13.8819 5.88873C13.8925 5.87811 13.9059 5.87027 13.9179 5.86104C13.9317 5.84996 13.9437 5.83796 13.9585 5.82919L18.3948 3.2755C18.451 3.24314 18.5146 3.2261 18.5794 3.2261C18.6442 3.2261 18.7079 3.24314 18.7641 3.2755L23.1994 5.82919C23.2151 5.83842 23.2271 5.84996 23.241 5.86058C23.2525 5.86981 23.2659 5.87811 23.2765 5.88827C23.2894 5.90165 23.2987 5.91688 23.3097 5.93165C23.3181 5.94273 23.3282 5.95242 23.3347 5.96442C23.3453 5.98242 23.3513 6.00227 23.3587 6.02165C23.3628 6.03227 23.3688 6.04196 23.3716 6.05304ZM22.6451 10.9998V6.78873L21.093 7.68227L18.9487 8.91688V13.128L22.6456 10.9998H22.6451ZM18.2097 18.6175V14.4037L16.1005 15.6083L10.0774 19.0458V23.2993L18.2097 18.6175ZM1.20667 4.27842V18.6175L9.33805 23.2989V19.0463L5.09005 16.6421L5.08867 16.6412L5.08682 16.6403C5.07252 16.632 5.06052 16.62 5.04713 16.6098C5.03559 16.6006 5.02221 16.5932 5.01205 16.583L5.01113 16.5817C4.99913 16.5701 4.99082 16.5558 4.98067 16.5429C4.97144 16.5304 4.96036 16.5198 4.95298 16.5069L4.95252 16.5055C4.94421 16.4917 4.93913 16.475 4.93313 16.4593C4.92713 16.4455 4.91929 16.4326 4.91559 16.4178C4.91098 16.4003 4.91005 16.3813 4.90821 16.3633C4.90636 16.3495 4.90267 16.3357 4.90267 16.3218V16.3209V6.40658L2.75882 5.1715L1.20667 4.27842ZM5.27282 1.51196L1.57729 3.63919L5.2719 5.76642L8.96698 3.63873L5.2719 1.51196H5.27282ZM7.19467 14.7877L9.33852 13.5535V4.27842L7.78636 5.17196L5.64205 6.40658V15.6817L7.19467 14.7877ZM18.5794 4.02227L14.8844 6.1495L18.5794 8.27673L22.2741 6.14904L18.5794 4.02227ZM18.2097 8.91688L16.0654 7.68227L14.5133 6.78873V10.9998L16.6571 12.234L18.2097 13.128V8.91688ZM9.70729 18.4066L15.1271 15.3124L17.8364 13.7663L14.1441 11.6404L9.89283 14.088L6.01821 16.3186L9.70729 18.4066Z" fill="#FF2D20"/>
</g>
<defs>
<clipPath id="clip0_129_25423">
<rect width="23.0769" height="24" fill="white" transform="translate(0.467285 0.715866)"/>
</clipPath>
</defs>
</svg>
