<svg width="47" height="47" viewBox="0 0 47 47" fill="none" xmlns="http://www.w3.org/2000/svg">
<g id="Standard Collection 6">
<path id="Vector" d="M10.7615 29.9227C10.2737 29.3774 9.98623 28.6822 9.94665 27.9516V18.8411C9.98612 18.1105 10.2736 17.4151 10.7615 16.87L11.406 16.2253C11.6221 16.0087 11.7435 15.7152 11.7435 15.4092C11.7435 15.1032 11.6221 14.8096 11.406 14.593L4.57019 7.75384C4.35342 7.53788 4.05996 7.41663 3.75401 7.41663C3.44807 7.41663 3.1546 7.53788 2.93784 7.75384L0.335791 10.3569C0.120681 10.574 0 10.8673 0 11.173C0 11.4787 0.120681 11.772 0.335791 11.9892L5.21462 16.8698C5.70344 17.4145 5.99128 18.11 6.03036 18.8409V27.9514C5.99139 28.682 5.7035 29.377 5.21462 29.9212L0.335791 34.8037C0.120681 35.0209 0 35.3142 0 35.6197C0 35.9255 0.120681 36.2188 0.335791 36.436L2.93784 39.0389C3.15462 39.2548 3.44809 39.3761 3.75401 39.3761C4.05993 39.3761 4.3534 39.2548 4.57019 39.0389L11.406 32.1993C11.6221 31.9825 11.7434 31.6891 11.7434 31.3832C11.7434 31.077 11.6221 30.7837 11.406 30.5671L10.7615 29.9227Z" fill="#EBECF0"/>
<path id="Vector_2" d="M29.5476 35.6657C29.0027 36.1537 28.3079 36.4416 27.5776 36.482H18.4731C17.7422 36.4416 17.0469 36.1539 16.5014 35.6657L15.8585 35.0193C15.6409 34.8041 15.3474 34.6834 15.0415 34.6834C14.7356 34.6834 14.4421 34.8041 14.2246 35.0193L7.38966 41.8585C7.17387 42.0757 7.05273 42.3695 7.05273 42.6757C7.05273 42.9819 7.17387 43.2757 7.38966 43.4926L9.9917 46.0958C10.209 46.311 10.5023 46.4316 10.8081 46.4316C11.1138 46.4316 11.4072 46.311 11.6245 46.0958L16.5022 41.2126C17.0476 40.7248 17.7427 40.4371 18.4733 40.3967H27.5804C28.3108 40.4369 29.0055 40.7246 29.5504 41.2126L34.4303 46.0958C34.6475 46.311 34.9406 46.4316 35.2464 46.4316C35.5519 46.4316 35.8452 46.311 36.0622 46.0958L38.6642 43.4926C38.8801 43.2757 39.0012 42.9819 39.0012 42.6757C39.0012 42.3695 38.8801 42.0757 38.6642 41.8585L31.8243 35.0189C31.6074 34.8036 31.3142 34.683 31.0087 34.683C30.7032 34.683 30.4098 34.8036 30.1929 35.0189L29.5476 35.6657Z" fill="#EBECF0"/>
<path id="Vector_3" d="M35.4527 16.9403C35.9417 17.486 36.2301 18.1824 36.2698 18.9142V28.0213C36.2299 28.7527 35.9415 29.4486 35.4527 29.9936L34.808 30.6398C34.5925 30.8568 34.4717 31.1501 34.4717 31.4561C34.4717 31.7618 34.5925 32.0552 34.808 32.2721L41.6457 39.1105C41.8625 39.3264 42.1561 39.4475 42.4618 39.4475C42.7677 39.4475 43.0611 39.3264 43.2779 39.1105L45.8799 36.5061C46.0958 36.2893 46.2171 35.9958 46.2171 35.6898C46.2171 35.3839 46.0958 35.0903 45.8799 34.8735L41.0022 29.9928C40.5131 29.4477 40.2245 28.7518 40.1846 28.0204L40.1859 18.9134C40.2251 18.1815 40.5131 17.4851 41.0022 16.9394L45.8799 12.0588C46.0958 11.8424 46.2171 11.5492 46.2171 11.2435C46.2171 10.9378 46.0958 10.6445 45.8799 10.4282L43.2779 7.82366C43.1707 7.71645 43.0435 7.63139 42.9036 7.57337C42.7634 7.51535 42.6135 7.48547 42.4618 7.48547C42.3103 7.48547 42.1602 7.51535 42.0202 7.57337C41.8801 7.63139 41.7529 7.71645 41.6457 7.82366L34.808 14.6618C34.5925 14.8787 34.4717 15.1722 34.4717 15.478C34.4717 15.7839 34.5925 16.0773 34.808 16.2943L35.4527 16.9403Z" fill="#EBECF0"/>
<path id="Vector_4" d="M16.6661 11.1974C17.2108 10.7087 17.9059 10.4207 18.6365 10.3811H27.7418C28.4721 10.4214 29.1669 10.7093 29.7119 11.1974L30.3579 11.8433C30.4649 11.9505 30.592 12.0355 30.732 12.0936C30.8719 12.1516 31.0219 12.1814 31.1733 12.1814C31.3248 12.1814 31.4749 12.1516 31.6147 12.0936C31.7546 12.0355 31.8818 11.9505 31.9889 11.8433L38.8256 5.00369C39.0413 4.78656 39.1623 4.49283 39.1623 4.18667C39.1623 3.88053 39.0413 3.58681 38.8256 3.36965L36.2236 0.769684C36.007 0.553228 35.7134 0.431641 35.4073 0.431641C35.1011 0.431641 34.8075 0.553228 34.591 0.769684L29.7122 5.65034C29.1671 6.1384 28.4723 6.42629 27.742 6.46658H18.6365C17.9059 6.42698 17.2108 6.139 16.6661 5.65034L11.7872 0.769684C11.57 0.554546 11.2767 0.433865 10.971 0.433865C10.6653 0.433865 10.3719 0.554546 10.1547 0.769684L7.55264 3.37269C7.33692 3.5898 7.21582 3.88348 7.21582 4.1896C7.21582 4.49572 7.33692 4.7894 7.55264 5.00651L14.3878 11.8431C14.6043 12.0596 14.8979 12.1811 15.2041 12.1811C15.5102 12.1811 15.8038 12.0596 16.0204 11.8431L16.6661 11.1974Z" fill="#EBECF0"/>
</g>
</svg>
