<svg width="47" height="46" viewBox="0 0 47 46" fill="none" xmlns="http://www.w3.org/2000/svg">
<g id="Standard Collection 6">
<path id="Vector" d="M10.8162 29.491C10.3284 28.9458 10.0409 28.2506 10.0013 27.52V18.4095C10.0408 17.6788 10.3283 16.9835 10.8162 16.4384L11.4607 15.7937C11.6768 15.5771 11.7981 15.2836 11.7981 14.9776C11.7981 14.6715 11.6768 14.378 11.4607 14.1614L4.62487 7.3222C4.40811 7.10623 4.11464 6.98499 3.8087 6.98499C3.50276 6.98499 3.20929 7.10623 2.99253 7.3222L0.390479 9.92521C0.175369 10.1423 0.0546875 10.4357 0.0546875 10.7414C0.0546875 11.0471 0.175369 11.3404 0.390479 11.5575L5.26931 16.4382C5.75812 16.9828 6.04597 17.6784 6.08505 18.4093V27.5198C6.04608 28.2504 5.75819 28.9453 5.26931 29.4895L0.390479 34.372C0.175369 34.5892 0.0546875 34.8826 0.0546875 35.1881C0.0546875 35.4938 0.175369 35.7872 0.390479 36.0044L2.99253 38.6073C3.20931 38.8232 3.50278 38.9445 3.8087 38.9445C4.11462 38.9445 4.40809 38.8232 4.62487 38.6073L11.4607 31.7676C11.6768 31.5508 11.7981 31.2575 11.7981 30.9515C11.7981 30.6454 11.6768 30.352 11.4607 30.1355L10.8162 29.491Z" fill="#00BD8C"/>
<path id="Vector_2" d="M29.6022 35.234C29.0574 35.722 28.3626 36.01 27.6323 36.0503H18.5278C17.7969 36.01 17.1016 35.7223 16.5561 35.234L15.9131 34.5877C15.6956 34.3724 15.4021 34.2518 15.0962 34.2518C14.7903 34.2518 14.4968 34.3724 14.2793 34.5877L7.44435 41.4269C7.22856 41.6441 7.10742 41.9379 7.10742 42.2441C7.10742 42.5502 7.22856 42.844 7.44435 43.061L10.0464 45.6641C10.2637 45.8794 10.557 46 10.8628 46C11.1685 46 11.4619 45.8794 11.6792 45.6641L16.5569 40.781C17.1023 40.2932 17.7974 40.0055 18.528 39.9651H27.6351C28.3655 40.0052 29.0602 40.293 29.6051 40.781L34.485 45.6641C34.7022 45.8794 34.9953 46 35.301 46C35.6065 46 35.8999 45.8794 36.1169 45.6641L38.7189 43.061C38.9348 42.844 39.0559 42.5502 39.0559 42.2441C39.0559 41.9379 38.9348 41.6441 38.7189 41.4269L31.879 34.5872C31.6621 34.372 31.3689 34.2513 31.0634 34.2513C30.7579 34.2513 30.4645 34.372 30.2475 34.5872L29.6022 35.234Z" fill="#00BD8C"/>
<path id="Vector_3" d="M35.5073 16.5086C35.9964 17.0543 36.2848 17.7507 36.3245 18.4826V27.5896C36.2846 28.3211 35.9962 29.0169 35.5073 29.562L34.8627 30.2081C34.6472 30.4251 34.5264 30.7185 34.5264 31.0244C34.5264 31.3302 34.6472 31.6235 34.8627 31.8405L41.7004 38.6789C41.9172 38.8948 42.2108 39.0158 42.5165 39.0158C42.8224 39.0158 43.1158 38.8948 43.3325 38.6789L45.9346 36.0744C46.1505 35.8577 46.2718 35.5641 46.2718 35.2582C46.2718 34.9522 46.1505 34.6586 45.9346 34.4419L41.0568 29.5611C40.5678 29.0161 40.2792 28.3202 40.2393 27.5888L40.2406 18.4817C40.2798 17.7499 40.5678 17.0535 41.0568 16.5078L45.9346 11.6271C46.1505 11.4108 46.2718 11.1175 46.2718 10.8118C46.2718 10.5061 46.1505 10.2129 45.9346 9.99655L43.3325 7.39202C43.2254 7.28481 43.0982 7.19975 42.9583 7.14173C42.8181 7.08371 42.6681 7.05383 42.5165 7.05383C42.365 7.05383 42.2149 7.08371 42.0749 7.14173C41.9348 7.19975 41.8076 7.28481 41.7004 7.39202L34.8627 14.2301C34.6472 14.4471 34.5264 14.7405 34.5264 15.0464C34.5264 15.3523 34.6472 15.6457 34.8627 15.8627L35.5073 16.5086Z" fill="#00BD8C"/>
<path id="Vector_4" d="M16.7208 10.7657C17.2654 10.277 17.9606 9.98905 18.6912 9.94945H27.7964C28.5268 9.98975 29.2216 10.2776 29.7666 10.7657L30.4126 11.4117C30.5196 11.5189 30.6467 11.6039 30.7867 11.6619C30.9266 11.7199 31.0766 11.7498 31.228 11.7498C31.3795 11.7498 31.5296 11.7199 31.6693 11.6619C31.8093 11.6039 31.9364 11.5189 32.0436 11.4117L38.8803 4.57205C39.096 4.35492 39.217 4.06119 39.217 3.75503C39.217 3.44889 39.096 3.15517 38.8803 2.93801L36.2782 0.338044C36.0617 0.121588 35.7681 0 35.462 0C35.1558 0 34.8622 0.121588 34.6457 0.338044L29.7669 5.2187C29.2218 5.70676 28.527 5.99465 27.7967 6.03494H18.6912C17.9606 5.99534 17.2654 5.70736 16.7208 5.2187L11.8419 0.338044C11.6247 0.122905 11.3314 0.00222425 11.0256 0.00222425C10.72 0.00222425 10.4266 0.122905 10.2094 0.338044L7.60733 2.94105C7.3916 3.15816 7.27051 3.45184 7.27051 3.75796C7.27051 4.06408 7.3916 4.35776 7.60733 4.57487L14.4425 11.4115C14.659 11.6279 14.9526 11.7495 15.2588 11.7495C15.5649 11.7495 15.8585 11.6279 16.075 11.4115L16.7208 10.7657Z" fill="#00BD8C"/>
</g>
</svg>
