<svg width="101" height="24" viewBox="0 0 101 24" fill="none" xmlns="http://www.w3.org/2000/svg">
<g id="OpenHive">
<path d="M16.3113 9.96739C16.3113 11.8481 15.959 13.4589 15.2544 14.7998C14.5556 16.135 13.601 17.1577 12.3908 17.868C11.1863 18.5782 9.81978 18.9333 8.29137 18.9333C6.76296 18.9333 5.39364 18.5782 4.18342 17.868C2.97887 17.152 2.02433 16.1265 1.31978 14.7912C0.620916 13.4503 0.271484 11.8424 0.271484 9.96739C0.271484 8.0867 0.620916 6.47875 1.31978 5.14352C2.02433 3.80261 2.97887 2.77704 4.18342 2.06682C5.39364 1.35659 6.76296 1.00148 8.29137 1.00148C9.81978 1.00148 11.1863 1.35659 12.3908 2.06682C13.601 2.77704 14.5556 3.80261 15.2544 5.14352C15.959 6.47875 16.3113 8.0867 16.3113 9.96739ZM13.1323 9.96739C13.1323 8.64352 12.9249 7.52704 12.5101 6.61795C12.101 5.70318 11.5328 5.01284 10.8056 4.54693C10.0783 4.07534 9.24023 3.83954 8.29137 3.83954C7.34251 3.83954 6.50444 4.07534 5.77717 4.54693C5.04989 5.01284 4.47887 5.70318 4.0641 6.61795C3.65501 7.52704 3.45046 8.64352 3.45046 9.96739C3.45046 11.2912 3.65501 12.4106 4.0641 13.3253C4.47887 14.2344 5.04989 14.9248 5.77717 15.3964C6.50444 15.8623 7.34251 16.0952 8.29137 16.0952C9.24023 16.0952 10.0783 15.8623 10.8056 15.3964C11.5328 14.9248 12.101 14.2344 12.5101 13.3253C12.9249 12.4106 13.1323 11.2912 13.1323 9.96739Z" fill="#00BD8C"/>
<path d="M17.4842 23.6038V5.60375H20.5183V7.76852H20.6973C20.8564 7.45034 21.0808 7.11227 21.3706 6.75432C21.6604 6.39068 22.0524 6.08102 22.5467 5.82534C23.0411 5.56398 23.6717 5.43329 24.4388 5.43329C25.4501 5.43329 26.3621 5.69182 27.1746 6.20886C27.9928 6.72023 28.6405 7.47875 29.1178 8.48443C29.6007 9.48443 29.8422 10.7117 29.8422 12.1662C29.8422 13.6037 29.6064 14.8253 29.1348 15.831C28.6632 16.8367 28.0212 17.6037 27.2087 18.1322C26.3962 18.6606 25.4757 18.9248 24.4473 18.9248C23.6973 18.9248 23.0751 18.7998 22.5808 18.5498C22.0865 18.2998 21.6888 17.9986 21.3876 17.6464C21.0922 17.2884 20.8621 16.9503 20.6973 16.6322H20.5695V23.6038H17.4842ZM20.5098 12.1492C20.5098 12.9958 20.6291 13.7373 20.8678 14.3736C21.1121 15.01 21.4615 15.5072 21.9161 15.8651C22.3763 16.2174 22.9331 16.3935 23.5865 16.3935C24.2683 16.3935 24.8394 16.2117 25.2996 15.8481C25.7598 15.4787 26.1064 14.9759 26.3394 14.3395C26.578 13.6975 26.6973 12.9674 26.6973 12.1492C26.6973 11.3367 26.5808 10.6151 26.3479 9.98443C26.1149 9.35375 25.7683 8.85943 25.3081 8.50148C24.8479 8.14352 24.274 7.96454 23.5865 7.96454C22.9274 7.96454 22.3678 8.13784 21.9075 8.48443C21.4473 8.83102 21.0979 9.31682 20.8592 9.94182C20.6263 10.5668 20.5098 11.3026 20.5098 12.1492Z" fill="#00BD8C"/>
<path d="M36.5997 18.9503C35.2872 18.9503 34.1537 18.6776 33.1991 18.1322C32.2503 17.581 31.5201 16.8026 31.0088 15.7969C30.4974 14.7856 30.2417 13.5952 30.2417 12.2259C30.2417 10.8793 30.4974 9.6975 31.0088 8.68045C31.5258 7.65773 32.2474 6.86227 33.1736 6.29409C34.0997 5.72023 35.1878 5.43329 36.4378 5.43329C37.2446 5.43329 38.0059 5.56398 38.7219 5.82534C39.4434 6.08102 40.0798 6.47875 40.6309 7.01852C41.1878 7.55829 41.6253 8.24579 41.9434 9.08102C42.2616 9.91057 42.4207 10.8992 42.4207 12.0469V12.993H31.6906V10.9134H39.4633C39.4576 10.3225 39.3298 9.79693 39.0798 9.3367C38.8298 8.87079 38.4804 8.50432 38.0315 8.23727C37.5883 7.97023 37.0713 7.8367 36.4804 7.8367C35.8497 7.8367 35.2957 7.99011 34.8184 8.29693C34.3412 8.59807 33.969 8.99579 33.702 9.49011C33.4406 9.97875 33.3071 10.5157 33.3014 11.1009V12.9162C33.3014 13.6776 33.4406 14.331 33.719 14.8765C33.9974 15.4162 34.3866 15.831 34.8866 16.1208C35.3866 16.4049 35.9719 16.5469 36.6423 16.5469C37.0912 16.5469 37.4974 16.4844 37.8611 16.3594C38.2247 16.2287 38.54 16.0384 38.8071 15.7884C39.0741 15.5384 39.2758 15.2287 39.4122 14.8594L42.2929 15.1833C42.1111 15.9447 41.7645 16.6094 41.2531 17.1776C40.7474 17.7401 40.0997 18.1776 39.3099 18.4901C38.5201 18.7969 37.6167 18.9503 36.5997 18.9503Z" fill="#00BD8C"/>
<path d="M46.436 11.0242V18.6947H43.3508V5.60375H46.2997V7.82818H46.4531C46.7542 7.09523 47.2343 6.51284 47.8934 6.08102C48.5582 5.6492 49.3792 5.43329 50.3565 5.43329C51.2599 5.43329 52.0468 5.62648 52.7173 6.01284C53.3934 6.3992 53.9161 6.95886 54.2855 7.69182C54.6605 8.42477 54.8451 9.31398 54.8394 10.3594V18.6947H51.7542V10.8367C51.7542 9.9617 51.5269 9.27704 51.0724 8.78273C50.6235 8.28841 50.0014 8.04125 49.2059 8.04125C48.6661 8.04125 48.186 8.16057 47.7656 8.3992C47.3508 8.63216 47.0241 8.97023 46.7855 9.41341C46.5525 9.85659 46.436 10.3935 46.436 11.0242Z" fill="#00BD8C"/>
<path d="M56.4322 18.6947V1.24011H59.5941V8.62932H67.6822V1.24011H70.8526V18.6947H67.6822V11.2799H59.5941V18.6947H56.4322Z" fill="#00BD8C"/>
<path d="M72.4752 18.6947V5.60375H75.5604V18.6947H72.4752ZM74.0263 3.74579C73.5377 3.74579 73.1172 3.58386 72.7649 3.26C72.4127 2.93045 72.2365 2.53557 72.2365 2.07534C72.2365 1.60943 72.4127 1.21454 72.7649 0.89068C73.1172 0.561135 73.5377 0.396362 74.0263 0.396362C74.5206 0.396362 74.9411 0.561135 75.2877 0.89068C75.6399 1.21454 75.8161 1.60943 75.8161 2.07534C75.8161 2.53557 75.6399 2.93045 75.2877 3.26C74.9411 3.58386 74.5206 3.74579 74.0263 3.74579Z" fill="#00BD8C"/>
<path d="M88.7462 5.60375L84.0842 18.6947H80.6751L76.0132 5.60375H79.303L82.3115 15.3282H82.4479L85.4649 5.60375H88.7462Z" fill="#00BD8C"/>
<path d="M94.5513 18.9503C93.2388 18.9503 92.1052 18.6776 91.1507 18.1322C90.2018 17.581 89.4717 16.8026 88.9603 15.7969C88.449 14.7856 88.1933 13.5952 88.1933 12.2259C88.1933 10.8793 88.449 9.6975 88.9603 8.68045C89.4774 7.65773 90.199 6.86227 91.1251 6.29409C92.0513 5.72023 93.1393 5.43329 94.3893 5.43329C95.1961 5.43329 95.9575 5.56398 96.6734 5.82534C97.395 6.08102 98.0314 6.47875 98.5825 7.01852C99.1393 7.55829 99.5768 8.24579 99.895 9.08102C100.213 9.91057 100.372 10.8992 100.372 12.0469V12.993H89.6422V10.9134H97.4149C97.4092 10.3225 97.2814 9.79693 97.0314 9.3367C96.7814 8.87079 96.4319 8.50432 95.9831 8.23727C95.5399 7.97023 95.0229 7.8367 94.4319 7.8367C93.8013 7.8367 93.2473 7.99011 92.77 8.29693C92.2927 8.59807 91.9206 8.99579 91.6535 9.49011C91.3922 9.97875 91.2586 10.5157 91.253 11.1009V12.9162C91.253 13.6776 91.3922 14.331 91.6706 14.8765C91.949 15.4162 92.3382 15.831 92.8382 16.1208C93.3382 16.4049 93.9234 16.5469 94.5939 16.5469C95.0427 16.5469 95.449 16.4844 95.8126 16.3594C96.1763 16.2287 96.4916 16.0384 96.7586 15.7884C97.0257 15.5384 97.2274 15.2287 97.3638 14.8594L100.244 15.1833C100.063 15.9447 99.716 16.6094 99.2047 17.1776C98.699 17.7401 98.0513 18.1776 97.2615 18.4901C96.4717 18.7969 95.5683 18.9503 94.5513 18.9503Z" fill="#00BD8C"/>
</g>
</svg>
