<svg width="49" height="25" viewBox="0 0 49 25" fill="none" xmlns="http://www.w3.org/2000/svg">
<g id="php_logo.svg" clip-path="url(#clip0_129_25425)">
<g id="Group">
<path id="Vector" d="M4.33967 5.75537H11.4308C13.5281 5.75537 15.0263 6.35412 15.9751 7.55163C16.9239 8.74913 17.2235 10.3458 16.9239 12.3915C16.824 13.3396 16.5244 14.2377 16.1249 15.1358C15.7254 16.034 15.1761 16.8323 14.427 17.5807C13.5281 18.4789 12.5793 19.0776 11.5806 19.3271C10.5818 19.5766 9.53316 19.6764 8.43454 19.6764H5.23855L4.2398 24.7159H0.544434L4.33967 5.75537ZM7.43579 8.79903L5.83779 16.7325C5.93767 16.7325 6.03754 16.7824 6.13742 16.7824C6.23729 16.7824 6.3871 16.7824 6.48698 16.7824C8.18485 16.7824 9.5831 16.6327 10.7317 16.2834C11.8802 15.9342 12.6293 14.6369 13.0288 12.4414C13.3284 10.5953 13.0288 9.54747 12.08 9.24809C11.1312 8.94872 9.9826 8.84893 8.58435 8.84893C8.3846 8.84893 8.18485 8.89882 7.9851 8.89882C7.78535 8.79903 7.5856 8.79903 7.43579 8.79903Z" fill="white"/>
<path id="Vector_2" d="M21.0687 0.715866H24.7141L23.6654 5.75537H26.9613C28.759 5.80526 30.1073 6.15454 31.0062 6.85308C31.9051 7.55163 32.1548 8.89882 31.8052 10.8947L30.0075 19.7263H26.3121L28.01 11.2938C28.2097 10.3957 28.1098 9.79695 27.8602 9.39778C27.5605 9.04851 26.9613 8.84892 26.0125 8.84892L23.0662 8.79903L20.9189 19.6764H17.2734L21.0687 0.715866Z" fill="white"/>
<path id="Vector_3" d="M35.7005 5.75537H42.7916C44.889 5.75537 46.3871 6.35412 47.3359 7.55163C48.2847 8.74913 48.5844 10.3458 48.2847 12.3915C48.1849 13.3396 47.8852 14.2377 47.4857 15.1358C47.0862 16.034 46.5369 16.8323 45.7879 17.5807C44.889 18.4789 43.9402 19.0776 42.9414 19.3271C41.9427 19.5766 40.894 19.6764 39.7954 19.6764H36.5994L35.6006 24.7159H31.9053L35.7005 5.75537ZM38.7966 8.79903L37.1986 16.7325C37.2985 16.7325 37.3984 16.7824 37.4983 16.7824C37.5981 16.7824 37.7479 16.7824 37.8478 16.7824C39.5457 16.7824 40.9439 16.6327 42.0925 16.2834C43.2411 15.9342 43.9901 14.6369 44.3896 12.4414C44.6892 10.5953 44.3896 9.54747 43.4408 9.24809C42.492 8.94872 41.3434 8.84893 39.9452 8.84893C39.7454 8.84893 39.5457 8.89882 39.3459 8.89882C39.1462 8.79903 38.9464 8.79903 38.7966 8.79903Z" fill="white"/>
</g>
</g>
<defs>
<clipPath id="clip0_129_25425">
<rect width="47.84" height="24" fill="white" transform="translate(0.544434 0.715866)"/>
</clipPath>
</defs>
</svg>
