<svg width="25" height="25" viewBox="0 0 25 25" fill="none" xmlns="http://www.w3.org/2000/svg">
<g id="star">
<path id="Vector" d="M14.2598 4.16004L16.0196 7.70874C16.2596 8.20273 16.8995 8.67656 17.4395 8.76729L20.6291 9.30161C22.6689 9.64439 23.1489 11.1365 21.679 12.6084L19.1993 15.1086C18.7793 15.532 18.5494 16.3486 18.6793 16.9334L19.3893 20.0284C19.9492 22.4782 18.6593 23.4259 16.5096 22.1455L13.5199 20.3611C12.98 20.0385 12.0901 20.0385 11.5401 20.3611L8.5505 22.1455C6.41073 23.4259 5.11088 22.4681 5.67082 20.0284L6.38074 16.9334C6.51072 16.3486 6.28075 15.532 5.86079 15.1086L3.38107 12.6084C1.92123 11.1365 2.39118 9.64439 4.43095 9.30161L7.6206 8.76729C8.15054 8.67656 8.79047 8.20273 9.03044 7.70874L10.7902 4.16004C11.7501 2.23447 13.3099 2.23447 14.2598 4.16004Z" stroke="#8B8D98" stroke-width="1.5" stroke-linecap="round" stroke-linejoin="round"/>
</g>
</svg>
