<svg width="25" height="25" viewBox="0 0 25 25" fill="none" xmlns="http://www.w3.org/2000/svg">
<g id="linkedin-01">
<path id="Vector" d="M7.26953 10.6914V17.6914" stroke="#EBECF0" stroke-width="1.5" stroke-linecap="round" stroke-linejoin="round"/>
<path id="Vector_2" d="M11.2695 13.6914V17.6914M11.2695 13.6914C11.2695 12.0345 12.6126 10.6914 14.2695 10.6914C15.9264 10.6914 17.2695 12.0345 17.2695 13.6914V17.6914M11.2695 13.6914V10.6914" stroke="#EBECF0" stroke-width="1.5" stroke-linecap="round" stroke-linejoin="round"/>
<path id="Vector_3" d="M7.27657 7.69141H7.26758" stroke="#EBECF0" stroke-width="2" stroke-linecap="round" stroke-linejoin="round"/>
<path id="Vector_4" d="M2.76953 12.6914C2.76953 8.21307 2.76953 5.9739 4.16077 4.58265C5.55202 3.19141 7.79119 3.19141 12.2695 3.19141C16.7478 3.19141 18.987 3.19141 20.3783 4.58265C21.7695 5.9739 21.7695 8.21307 21.7695 12.6914C21.7695 17.1697 21.7695 19.4089 20.3783 20.8002C18.987 22.1914 16.7478 22.1914 12.2695 22.1914C7.79119 22.1914 5.55202 22.1914 4.16077 20.8002C2.76953 19.4089 2.76953 17.1697 2.76953 12.6914Z" stroke="#EBECF0" stroke-width="1.5" stroke-linejoin="round"/>
</g>
</svg>
